<svg width="36" height="36" viewBox="0 0 36 36" fill="none" xmlns="http://www.w3.org/2000/svg">
<path d="M36 18C36 8.05867 27.9413 0 18 0C8.05867 0 0 8.05867 0 18C0 26.984 6.58133 34.432 15.1867 35.7813V23.2027H10.616V18H15.1867V14.0347C15.1867 9.52267 17.8747 7.032 21.9867 7.032C23.9573 7.032 26.016 7.384 26.016 7.384V11.8133H23.7467C21.512 11.8133 20.8133 13.2 20.8133 14.624V18H25.8053L25.008 23.2027H20.8133V35.7813C29.4187 34.432 36 26.984 36 18Z" fill="#6F7892"/>
<path d="M25.0053 23.2029L25.8026 18.0002H20.8106V14.6242C20.8106 13.2002 21.5066 11.8136 23.7439 11.8136H26.0133V7.38423C26.0133 7.38423 23.9546 7.03223 21.9839 7.03223C17.8719 7.03223 15.1839 9.52289 15.1839 14.0349V18.0002H10.6133V23.2029H15.1839V35.7816C16.1013 35.9256 17.0399 36.0002 17.9973 36.0002C18.9546 36.0002 19.8933 35.9256 20.8106 35.7816V23.2029H25.0053Z" fill="white"/>
</svg>
