<svg width="36" height="36" viewBox="0 0 36 36" fill="none" xmlns="http://www.w3.org/2000/svg">
<path d="M18 36C27.9411 36 36 27.9411 36 18C36 8.05887 27.9411 0 18 0C8.05888 0 0 8.05887 0 18C0 27.9411 8.05888 36 18 36Z" fill="#6F7892"/>
<path d="M19.392 15.5437C19.688 15.2104 19.9307 14.8744 20.2347 14.589C21.168 13.709 22.272 13.2664 23.5627 13.277C24.272 13.2824 24.9707 13.333 25.6533 13.5304C27.216 13.981 28.1227 15.0584 28.5573 16.5837C28.8827 17.7277 28.9413 18.9037 28.944 20.0824C28.9493 22.5677 28.936 25.0557 28.944 27.541C28.944 27.773 28.88 27.8344 28.6507 27.8344C27.3707 27.8237 26.088 27.8237 24.808 27.8344C24.5813 27.8344 24.5333 27.7677 24.5333 27.5544C24.5413 25.189 24.5413 22.8237 24.5333 20.4557C24.5333 19.8637 24.4933 19.269 24.328 18.693C24.0213 17.6317 23.2613 17.0904 22.1493 17.149C20.6293 17.229 19.84 17.981 19.648 19.525C19.6027 19.893 19.5787 20.2637 19.5813 20.6344C19.5813 22.9357 19.5813 25.237 19.5867 27.5384C19.5867 27.7677 19.5307 27.8344 19.296 27.8344C18.0053 27.8237 16.7147 27.8237 15.424 27.8344C15.216 27.8344 15.1573 27.781 15.1573 27.5704C15.1627 23.0157 15.1627 18.4584 15.1573 13.9037C15.1573 13.677 15.232 13.6264 15.4453 13.6264C16.6693 13.6344 17.896 13.637 19.12 13.6264C19.3467 13.6264 19.4027 13.6984 19.4 13.9117C19.3867 14.4557 19.3947 14.9997 19.3947 15.5464L19.392 15.5437Z" fill="#FEFEFE"/>
<path d="M12.3735 20.7489C12.3735 23.0022 12.3708 25.2555 12.3788 27.5089C12.3788 27.7595 12.3175 27.8342 12.0588 27.8315C10.7788 27.8182 9.4988 27.8209 8.21613 27.8315C8.0108 27.8315 7.94946 27.7809 7.94946 27.5702C7.9548 23.0075 7.9548 18.4449 7.94946 13.8795C7.94946 13.6902 7.99479 13.6235 8.19479 13.6235C9.49346 13.6315 10.7921 13.6342 12.0908 13.6235C12.3415 13.6235 12.3735 13.7169 12.3735 13.9329C12.3681 16.2049 12.3708 18.4769 12.3708 20.7489H12.3735Z" fill="#FEFEFE"/>
<path d="M12.7254 9.1038C12.7254 10.5198 11.5787 11.6718 10.1654 11.6718C8.77071 11.6718 7.61338 10.5198 7.60805 9.12513C7.60272 7.71713 8.76005 6.55713 10.1707 6.55713C11.5707 6.55713 12.7227 7.70646 12.7254 9.10113V9.1038Z" fill="#FEFEFE"/>
</svg>
