<svg width="168" height="72" viewBox="0 0 168 72" fill="none" xmlns="http://www.w3.org/2000/svg">
<path d="M54.5071 27.7966V71.9641H47.6051C35.4615 71.9641 25.5168 62.0284 25.5168 49.8759C25.5168 37.7233 35.4525 27.7876 47.6051 27.7876H54.5071V27.7966Z" fill="#6E7791"/>
<path d="M0 0V44.1675H6.90202C19.0456 44.1675 28.9903 34.2319 28.9903 22.0793C28.9903 9.9267 19.0456 0 6.90202 0H0Z" fill="#95AA77"/>
<path d="M70.5459 46.0524V27.8235H77.421C78.7134 27.8235 79.8084 28.0299 80.706 28.4428C81.6035 28.8556 82.2766 29.466 82.7344 30.2648C83.1921 31.0636 83.4165 32.0419 83.4165 33.1997C83.4165 34.3575 83.1921 35.3089 82.7344 36.1077C82.2766 36.9065 81.6035 37.5258 80.706 37.9387C79.8084 38.3605 78.7134 38.5759 77.421 38.5759H72.1256V46.0524H70.5459ZM72.1166 37.1847H77.2864C78.7852 37.1847 79.9161 36.8527 80.6701 36.1795C81.433 35.5064 81.8099 34.5191 81.8099 33.2087C81.8099 31.8983 81.433 30.902 80.6701 30.2199C79.9072 29.5378 78.7852 29.1967 77.2864 29.1967H72.1166V37.1847Z" fill="#414042"/>
<path d="M86.6747 46.0524V27.8235H93.5498C95.4795 27.8235 96.9605 28.2723 97.9926 29.1698C99.0248 30.0673 99.5454 31.3418 99.5454 32.9933C99.5454 34.0613 99.312 34.9768 98.8453 35.7487C98.3786 36.5116 97.6964 37.095 96.7899 37.4989C95.8834 37.8938 94.8064 38.0912 93.5409 38.0912L93.8281 37.7592H94.1871C94.8423 37.7592 95.4167 37.9297 95.9104 38.2797C96.404 38.6298 96.8438 39.1862 97.2387 39.9581L100.551 46.0613H98.8184L95.668 40.2184C95.3718 39.6709 95.0577 39.2491 94.7256 38.9529C94.3935 38.6567 93.9986 38.4592 93.5498 38.3426C93.1011 38.2349 92.5626 38.172 91.9433 38.172H88.2454V46.0613H86.6658L86.6747 46.0524ZM88.2544 36.8168H93.3524C94.8872 36.8168 96.036 36.4936 96.8079 35.8474C97.5708 35.2012 97.9567 34.2498 97.9567 32.9933C97.9567 31.7367 97.5708 30.8123 96.8079 30.166C96.036 29.5198 94.8872 29.1967 93.3524 29.1967H88.2544V36.8257V36.8168Z" fill="#414042"/>
<path d="M105.397 27.8773H103.817V46.1062H105.397V27.8773Z" fill="#414042"/>
<path d="M108.7 46.0524V27.8235H110.038L117.64 42.2468H116.922L124.47 27.8235H125.816V46.0524H124.335V29.7352H124.963L117.846 43.2341H116.715L109.526 29.7083H110.145V46.0524H108.7Z" fill="#414042"/>
<path d="M129.074 46.0524V27.8235H140.293V29.1967H130.618V36.1257H139.746V37.4899H130.618V44.6791H140.293V46.0524H129.074Z" fill="#414042"/>
<path d="M70.5459 72V53.7711H76.4158C78.3634 53.7711 80.0059 54.1122 81.3522 54.8033C82.6985 55.4944 83.7217 56.5176 84.4307 57.8639C85.1398 59.2191 85.4898 60.8885 85.4898 62.8631C85.4898 64.8377 85.1398 66.5161 84.4307 67.8624C83.7217 69.2176 82.6985 70.2408 81.3522 70.9409C80.0059 71.641 78.3634 71.991 76.4158 71.991H70.5459V72ZM72.1166 70.5998H76.2811C78.7763 70.5998 80.6521 69.9536 81.9087 68.6612C83.1562 67.3687 83.7845 65.439 83.7845 62.8721C83.7845 60.3052 83.1562 58.3755 81.9087 57.092C80.6611 55.8085 78.7852 55.1623 76.2811 55.1623H72.1166V70.5998Z" fill="#414042"/>
<path d="M88.748 53.7711V72H99.9672V70.6268H90.3008V63.4465H99.4197V62.0733H90.3008V55.1443H99.9672V53.7711H88.748Z" fill="#414042"/>
<path d="M116.024 53.7711V69.3074L104.491 53.7711H103.225V72H104.697V56.4278L116.248 72H117.496V53.7711H116.024Z" fill="#414042"/>
<path d="M120.754 53.7711V55.1982H127.548V72H129.155V55.1982H135.949V53.7711H120.754Z" fill="#414042"/>
<path d="M143.363 53.7711L135.428 72H137.107L139.162 67.1443H148.954L151.037 72H152.688L144.781 53.7711H143.363ZM144.036 55.7367H144.09L148.38 65.7711H139.782L144.045 55.7367H144.036Z" fill="#414042"/>
<path d="M155.955 53.7711V72H167.04V70.5819H157.526V53.7711H155.955Z" fill="#414042"/>
</svg>
