<?xml version="1.0" encoding="UTF-8"?>
<svg id="Layer_1" data-name="Layer 1" xmlns="http://www.w3.org/2000/svg" version="1.1" viewBox="0 0 168 72">
  <defs>
    <style>
      .cls-1 {
        fill: #95aa77;
      }

      .cls-1, .cls-2, .cls-3 {
        stroke-width: 0px;
      }

      .cls-2 {
        fill: #d9dae2;
      }

      .cls-3 {
        fill: #fff;
      }
    </style>
  </defs>
  <path class="cls-2" d="M54.5,27.8v44.2h-6.9c-12.1,0-22.1-9.9-22.1-22.1s9.9-22.1,22.1-22.1c0,0,6.9,0,6.9,0Z"/>
  <path class="cls-1" d="M0,0v44.2h6.9c12.1,0,22.1-9.9,22.1-22.1S19,0,6.9,0H0Z"/>
  <path class="cls-3" d="M70.5,46.1v-18.2h6.9c1.3,0,2.4.2,3.3.6s1.6,1,2,1.8c.5.8.7,1.8.7,2.9s-.2,2.1-.7,2.9c-.5.8-1.1,1.4-2,1.8-.9.4-2,.6-3.3.6h-5.3v7.5h-1.6ZM72.1,37.2h5.2c1.5,0,2.6-.3,3.4-1s1.1-1.7,1.1-3-.4-2.3-1.1-3c-.8-.7-1.9-1-3.4-1h-5.2v8Z"/>
  <path class="cls-3" d="M86.7,46.1v-18.2h6.9c1.9,0,3.4.4,4.4,1.3s1.6,2.2,1.6,3.8-.2,2-.7,2.8-1.1,1.3-2.1,1.8c-.9.4-2,.6-3.2.6l.3-.3h.4c.7,0,1.2.2,1.7.5.5.4.9.9,1.3,1.7l3.3,6.1h-1.7l-3.2-5.8c-.3-.5-.6-1-.9-1.3s-.7-.5-1.2-.6c-.4,0-1-.2-1.6-.2h-3.7v7.9h-1.6ZM88.3,36.8h5.1c1.5,0,2.7-.3,3.5-1,.8-.6,1.1-1.6,1.1-2.9s-.4-2.2-1.1-2.8c-.8-.6-1.9-1-3.5-1h-5.1v7.6h0Z"/>
  <path class="cls-3" d="M105.4,27.9h-1.6v18.2h1.6s0-18.2,0-18.2Z"/>
  <path class="cls-3" d="M108.7,46.1v-18.2h1.3l7.6,14.4h-.7l7.5-14.4h1.3v18.2h-1.5v-16.3h.6l-7.1,13.5h-1.1l-7.2-13.5h.6v16.3h-1.4,0Z"/>
  <path class="cls-3" d="M129.1,46.1v-18.2h11.2v1.4h-9.7v6.9h9.1v1.4h-9.1v7.2h9.7v1.4h-11.2Z"/>
  <path class="cls-3" d="M70.5,72v-18.2h5.9c1.9,0,3.6.3,4.9,1s2.4,1.7,3.1,3.1c.7,1.4,1.1,3,1.1,5s-.3,3.7-1.1,5c-.7,1.4-1.7,2.4-3.1,3.1-1.3.7-3,1.1-4.9,1.1h-5.9ZM72.1,70.6h4.2c2.5,0,4.4-.6,5.6-1.9s1.9-3.2,1.9-5.8-.6-4.5-1.9-5.8c-1.2-1.3-3.1-1.9-5.6-1.9h-4.2v15.4Z"/>
  <path class="cls-3" d="M88.7,53.8v18.2h11.2v-1.4h-9.7v-7.2h9.1v-1.4h-9.1v-6.9h9.7v-1.4h-11.2Z"/>
  <path class="cls-3" d="M116,53.8v15.5l-11.5-15.5h-1.3v18.2h1.5v-15.6l11.6,15.6h1.2v-18.2s-1.5,0-1.5,0Z"/>
  <path class="cls-3" d="M120.8,53.8v1.4h6.8v16.8h1.6v-16.8h6.8v-1.4h-15.2Z"/>
  <path class="cls-3" d="M143.4,53.8l-7.9,18.2h1.7l2.1-4.9h9.8l2.1,4.9h1.7l-7.9-18.2h-1.6ZM144,55.7h0l4.3,10h-8.6l4.3-10h0Z"/>
  <path class="cls-3" d="M156,53.8v18.2h11.1v-1.4h-9.5v-16.8h-1.6Z"/>
</svg>