<svg width="36" height="36" viewBox="0 0 36 36" fill="none" xmlns="http://www.w3.org/2000/svg">
<path d="M18 36C27.9411 36 36 27.9411 36 18C36 8.05887 27.9411 0 18 0C8.05888 0 0 8.05887 0 18C0 27.9411 8.05888 36 18 36Z" fill="#6F7892"/>
<path d="M29.4987 12.2236C29.224 11.1916 28.4107 10.3783 27.376 10.1009C25.504 9.59961 18 9.59961 18 9.59961C18 9.59961 10.496 9.59961 8.62401 10.1009C7.59201 10.3783 6.77867 11.1889 6.50133 12.2236C6 14.0956 6 17.9996 6 17.9996C6 17.9996 6 21.9036 6.50133 23.7756C6.776 24.8076 7.58934 25.6209 8.62401 25.8983C10.496 26.3996 18 26.3996 18 26.3996C18 26.3996 25.504 26.3996 27.376 25.8983C28.408 25.6209 29.2213 24.8103 29.4987 23.7756C30 21.9036 30 17.9996 30 17.9996C30 17.9996 30 14.0956 29.4987 12.2236ZM15.6 21.5996V14.3996L21.8347 17.9996L15.6 21.5996Z" fill="white"/>
</svg>
